<svg id="Layer_5" data-name="Layer 5" xmlns="http://www.w3.org/2000/svg" viewBox="0 0 477.28 401.34"><defs><style>.cls-1{fill:#2a9cc8;}.cls-2{fill:#dcdde0;}.cls-3{fill:#fff;}.cls-4{fill:#fcc18b;}.cls-5{fill:#ffa348;}.cls-6{fill:#858fa9;}.cls-7{fill:#f8f8fa;}.cls-8{fill:#414355;}.cls-9{font-size:8px;font-family:Lato-Thin, Lato;font-weight:200;opacity:0.5;}.cls-10{letter-spacing:-0.01em;}.cls-11{letter-spacing:-0.01em;}.cls-12{letter-spacing:-0.03em;}.cls-13{letter-spacing:-0.01em;}</style></defs><title>5illus-blog-exp2</title><path class="cls-1" d="M338.33,111.5c-16.09,0-18.33,28.67-16.75,42.92.84,7.53,1.8,14.5,3,21.91,2.07,12.77,3.13,24.12,4.45,37,1.21,11.9.78,23.72-10.2,31.1,11-1.17,22.9-3.18,33-5.09,11.77-29.56,23.4-59.52,23.61-91.83.1-15.35-4-37.3-23.27-37.56-4.42-.06-6.59.64-11.17,1.23Z" transform="translate(-203.23 -87.04)"/><path class="cls-1" d="M362.5,254c14.25-.13,29.56-1.18,41.13-2,5.28-.37,9.45-9.37,13-13,7-7.15,7.55-7.11,13.61-15.05,12.76-16.75,27.38-41.4,20-63.22-4.21-12.45-16.43-18.19-28.54-12.66-17.27,7.87-26.43,28.71-32.31,45.5-3.43,9.77-6,19.79-8.7,29.78-1.63,6-3.23,12.22-6,17.86-2.45,5.06-7,6.66-11.09,10.41Z" transform="translate(-203.23 -87.04)"/><path class="cls-1" d="M457.92,279.42c12.91,0,34.67-1,38.16-1.92,7-1.86,6.65-12.17,7.45-18,1.34-9.63-.93-21.08-9.83-26.5-12-7.29-28.11.1-38.95,6.09-13.75,7.6-29.25,18.18-38.41,31.29-2.16,3.09-3.31,6.45-5.8,9.34" transform="translate(-203.23 -87.04)"/><path class="cls-2" d="M627.69,380.27c-3.34-6.48-5.94-12.64-8.23-18.07-6-14.31-10.81-25.6-24.48-32.89a48.59,48.59,0,0,0-8.5-2.76c-7.25-2-16.28-4.42-17.24-8.42-2.37-9.83,5.94-16.21,12.61-21.34a38.91,38.91,0,0,0,6-5.22c12.48-15,15.64-40.39,6.77-54.41-7-11.11-13.31-14.87-24.83-14.87-5.17,0-11.3.73-19.07,1.64-2.43.29-5,.6-7.81.91-7.76.86-15.3,1.89-22.92,3.06a10,10,0,0,1,1.08-5.66c4.57-8.15,8.91-14.63,13.94-22.14l4.21-6.32c6.25-9.46,12.69-21.14,13.08-36.1.34-13-6.7-22.75-18.38-25.5a46.83,46.83,0,0,0-10.34-.94c-12.47,0-29.28,2.69-40.84,4.71-2.75.47-5.56,1-8.4,1.56,1-21.33-.64-48.26-21.06-50.23-1.61-.16-3.36-.24-5.22-.24-10.84,0-23.7,2.58-35.95,5.22-7.23,1.56-13,2.91-19.11,4.35-4.89,1.15-9.95,2.33-15.89,3.65-10.16,2.26-19.47,5-29.33,8-3.23,1-5.85,1.63-9.18,2.6l-3,.88,2.87.12c1.38.13,4.35.46,5.75.75,6.63,1.38,10.63,3.25,17.32,13.89,6.07,9.62,6.74,24.79,4.94,35.41-1.47,8.68-4.36,15.91-7.42,23.56a171.13,171.13,0,0,0-5.82,16.13c-.54,1.88-1.22,4-1.94,6.32-3.56,11.3-8.43,26.76-6.06,36.44,1.56,6.41,7.08,10.24,14.76,10.24a24.6,24.6,0,0,0,15-5.22c6.85-5.55,10-14.95,13.16-25.75,2.35-8,3.91-15,5.3-21.12,3.12-13.87,4.89-23.82,12.72-36.39,4.75-7.63,10.24-14.88,19.25-16.88,4.5-1,11.52-.36,13.58.85,6.41,3.75,9.55,11.78,10.05,17.9s-2.22,23.41-7.39,32.08C434,213,426.83,221.15,414.79,234.41c-1,1.1-2,2.17-3,3.22-6.6,7.1-12.3,13.23-14.47,23.1-1.37,6.22-.66,11.12,2.11,14.57,2.53,3.14,6.71,4.88,11.76,4.88a20.7,20.7,0,0,0,9.86-2.41c15.8-8.89,24.31-17.36,36.45-30.26.53-.56,1-1.12,1.52-1.67,3.32-3.7,6.51-7.24,16.51-9.53l4.89.44c5.47.54,9.67,2.87,12.48,6.92,4.27,6.12,5,15.69,2.09,27-3.71,14.3-13.83,20.63-25.55,28A141.21,141.21,0,0,0,454,309.28a28,28,0,0,0-9.82,22.82c.55,7.94,4.88,14.8,12.21,19.33,5.31,3.28,12.1,4.9,18.66,6.47,9.62,2.3,19.56,4.68,25.36,12.27,3.69,4.83,5.86,11,7.95,16.88,1.05,3,2.14,6.08,3.4,8.9,4.23,9.5,11.39,17.26,18.36,24.4l.24.24.31-.13c12.2-4.87,24.7-7.47,36.79-10,10.22-2.13,20.8-4.32,31.31-7.9,7.68-2.61,11.89-6.95,16.36-11.54,3.43-3.53,7-7.19,12.34-10.1l.43-.24ZM500,171c10,7,22,11,33,17C522,182,510,178,500,171Z" transform="translate(-203.23 -87.04)"/><path class="cls-2" d="M323.28,165.65c-.16-1-.26-1.59-.29-1.75l-.11-.51-2.17.54c-4.9,1.27-21,4.14-28.29,5.33-5.71.93-11.24,2-16.58,2.94-9.34,1.73-18.17,3.37-27.9,4.55-1,.13-2.36.26-3.9.42a138.39,138.39,0,0,0-16.56,2.35l-.8.2.55.63c9.36,10.56,17.46,19,25.49,26.41,12.19,11.28,26.89,23.94,43.53,32,6.14,3,13.22,6.23,19.6,6.23h0a13.52,13.52,0,0,0,12.33-7.16c5.94-10.21,4.18-29.44.55-44C326.24,183.91,324.09,170.65,323.28,165.65Z" transform="translate(-203.23 -87.04)"/><path class="cls-3" d="M441.33,144.33c-.6-7.54-.25-17.38-3.33-26-4.16-11.62-13.67-21-13.67-21L360.5,112.67s10.38,11.9,13.5,25.66c5.67,25-6,45.34-6,45.34l33.25-8.17a88.09,88.09,0,0,1,9-15.13C416.08,151.87,421.68,148.07,441.33,144.33Z" transform="translate(-203.23 -87.04)"/><polygon class="cls-3" points="391.52 297.96 331.77 316.96 309.52 275.96 365.77 259.71 391.52 297.96"/><path class="cls-4" d="M586.5,331.25,522,349s-35.5-1.25-38.25-15.5c-1.72-8.92,8.5-21.5,8.5-21.5l76.25-14.25S556.75,310,559.25,320C561.86,330.45,586.5,331.25,586.5,331.25Z" transform="translate(-203.23 -87.04)"/><path class="cls-3" d="M585,279.67,486.75,296s14.5-16,16.25-30-4.67-27-4.67-27l79.17-10.5S587.93,236,592,247.67C597.5,263.42,585,279.67,585,279.67Z" transform="translate(-203.23 -87.04)"/><path class="cls-4" d="M536,145.33s-18,2-34.33,3.67C482,151,458,158,458,158a75,75,0,0,1,1.25,25.5c-1.75,14-15.25,32.75-15.25,32.75l79.33-12.92S542.67,185,542.67,162C542.67,149.65,536,145.33,536,145.33ZM500,171c10,7,22,11,33,17C522,182,510,178,500,171Z" transform="translate(-203.23 -87.04)"/><polygon class="cls-4" points="391.52 297.96 331.77 316.96 323.52 302.08 382.27 284.13 391.52 297.96"/><path class="cls-5" d="M444,216.25l79.33-12.92a74.18,74.18,0,0,0,7.55-8.71c-27.45,4-52,7.63-81.3,12.93C446.55,212.71,444,216.25,444,216.25Z" transform="translate(-203.23 -87.04)"/><polygon class="cls-2" points="475.02 326.46 476.27 332.71 344.52 384.46 342.02 380.21 324.52 330.46 424.69 293.66 475.02 326.46"/><path class="cls-6" d="M547.5,471.67c3.83,0,52.41-20.34,64-24.67,11.93-4.46,24.29-10.23,36.17-14.83,7.08-2.75,26.75-9.76,31.83-12.42,2.26-1.18.35-7.35-2-6.42C655,422.25,634,431,611.64,440.16c-10.81,4.41-37.81,14.51-43.14,16.84S548,465.27,545,466.5C544,466.92,547.5,471.67,547.5,471.67Z" transform="translate(-203.23 -87.04)"/><path class="cls-7" d="M536.16,419.84l1.59,4.91,5.49-2.06c-.87-1.37-1.3-3-2.16-4.71Z" transform="translate(-203.23 -87.04)"/><path class="cls-7" d="M547.88,415.42l-5.14,1.94c.82,1.44,1.86,3.1,2.66,4.52l5.38-2A21.24,21.24,0,0,0,547.88,415.42Z" transform="translate(-203.23 -87.04)"/><path class="cls-7" d="M549.91,414.66c1,1.34,1.72,2.84,2.9,4.34l5.12-1.82a16.71,16.71,0,0,1-2.63-4.56Z" transform="translate(-203.23 -87.04)"/><path class="cls-7" d="M562.1,410.06l-4.47,1.69c1.13,1.57,1.5,3.46,2.54,4.59l4.86-1.82A18.49,18.49,0,0,0,562.1,410.06Z" transform="translate(-203.23 -87.04)"/><path class="cls-7" d="M569.19,407.39l-4.76,1.79c1.07,1.38,1.9,3,2.87,4.49l5.22-2C571.31,410.12,570.5,409.06,569.19,407.39Z" transform="translate(-203.23 -87.04)"/><path class="cls-7" d="M576.33,404.7l-4.84,1.82c1.32,1.43,2.23,2.86,3.43,4.29l4.48-1.68C578.63,407.44,577,406.19,576.33,404.7Z" transform="translate(-203.23 -87.04)"/><path class="cls-7" d="M584.56,401.75l-6.37,2.44c1.31,1.43,2.11,2.82,3.31,4.25l5.87-2.25C586.6,404.49,585.26,403.24,584.56,401.75Z" transform="translate(-203.23 -87.04)"/><path class="cls-7" d="M592.33,398.66,586.12,401c1.38,1.5,2.37,2.95,3.44,4.32l6.34-2.38A31.39,31.39,0,0,0,592.33,398.66Z" transform="translate(-203.23 -87.04)"/><path class="cls-7" d="M594.48,397.85c.93,1.49,2.24,3,3.13,4.45l5-1.87a51,51,0,0,0-3.5-4.32Z" transform="translate(-203.23 -87.04)"/><path class="cls-7" d="M614.53,390.3l-5.35,2c1,1.76,2.26,2.89,3.19,4.44l5.57-2.25C616.69,393.12,615.75,391.44,614.53,390.3Z" transform="translate(-203.23 -87.04)"/><path class="cls-7" d="M621.25,387.94,616,389.75c1.69,1.94,3.88,4.4,3.69,4.06l5.37-1.94C623.75,390.75,622.81,389.34,621.25,387.94Z" transform="translate(-203.23 -87.04)"/><path class="cls-7" d="M627.5,385.81l-4.69,1.5c1.69,1.63,2.4,2.52,3.81,3.88l5.13-1.69Z" transform="translate(-203.23 -87.04)"/><path class="cls-7" d="M606.64,393.27l-5.24,2c1.1,1.13,1.74,3.13,3.6,4.28l5.33-2C609.07,396.39,608.31,394.62,606.64,393.27Z" transform="translate(-203.23 -87.04)"/><path class="cls-7" d="M539.5,427.5l2.25,5,6.09-2.34a19.51,19.51,0,0,0-2.81-4.79Z" transform="translate(-203.23 -87.04)"/><path class="cls-7" d="M576.31,413.37c1.32,1.55,1.7,3.54,2.7,4.78l7.89-3a34.44,34.44,0,0,0-2.86-4.73Z" transform="translate(-203.23 -87.04)"/><path class="cls-7" d="M592.34,407.21l-6.78,2.66a33.22,33.22,0,0,1,3.15,4.55l6.8-2.62C594.56,410.06,593.79,408.29,592.34,407.21Z" transform="translate(-203.23 -87.04)"/><path class="cls-7" d="M600.27,404.17l-6,2.3c.88,1.53,2.23,3.06,3.19,4.58l6.22-2.39A29.69,29.69,0,0,0,600.27,404.17Z" transform="translate(-203.23 -87.04)"/><path class="cls-7" d="M602.24,403.41a41.52,41.52,0,0,0,3.65,4.4l5.85-2.26a38.41,38.41,0,0,0-3.65-4.39Z" transform="translate(-203.23 -87.04)"/><path class="cls-7" d="M633.25,391.5s-3.31,1.36-3.34,1.28l-1.54.59c1.39,1.39,2.8,2.93,4.19,4.32l5.94-2.44Z" transform="translate(-203.23 -87.04)"/><path class="cls-7" d="M574.56,414.06l-7.46,2.84c.84,1.91,2.1,3,2.69,4.81l7.79-3A26.7,26.7,0,0,0,574.56,414.06Z" transform="translate(-203.23 -87.04)"/><path class="cls-7" d="M556.75,420.94a37.64,37.64,0,0,1,2.6,4.78l8.57-3.29c-.61-1.37-1.86-3.12-2.81-4.76Z" transform="translate(-203.23 -87.04)"/><path class="cls-7" d="M546.81,424.81a37.6,37.6,0,0,1,2.69,4.63l8.69-3.32c-.61-1.36-1.8-3-2.75-4.68Z" transform="translate(-203.23 -87.04)"/><path class="cls-7" d="M552.3,431.54l-9.55,3.71,3,5.25,10-3.93C554.81,434.89,553.28,433.22,552.3,431.54Z" transform="translate(-203.23 -87.04)"/><path class="cls-7" d="M553.91,430.92a17.3,17.3,0,0,1,3.64,4.95l6.72-2.64c-1.42-1.61-2.38-3.22-3.89-4.83Z" transform="translate(-203.23 -87.04)"/><path class="cls-7" d="M563.13,427.33a14.88,14.88,0,0,0,3.29,5.05l8.13-3.18c-1-1.66-2.53-3.31-3.42-5Z" transform="translate(-203.23 -87.04)"/><path class="cls-7" d="M573.33,423.37a48.18,48.18,0,0,1,3.34,5l7.7-3c-1.43-1.59-2.38-3.18-3.83-4.77Z" transform="translate(-203.23 -87.04)"/><path class="cls-7" d="M582.19,420a46.07,46.07,0,0,1,3.62,4.75l10.07-3.94c-1.44-1.58-1.93-3.41-3.38-5Z" transform="translate(-203.23 -87.04)"/><path class="cls-7" d="M594.49,415.15c1.26,1.72,2.07,3.22,3.2,5l5.91-2.32c-1.39-1.53-2-3.34-3.44-4.83Z" transform="translate(-203.23 -87.04)"/><path class="cls-7" d="M602.08,412.21c1.36,1.85,2.3,3.6,3.41,4.84l11.2-4.43a43.59,43.59,0,0,0-3.5-4.75Z" transform="translate(-203.23 -87.04)"/><path class="cls-7" d="M625.49,403.12l-6.25,2.43c.87,1.92,2.57,3,3.77,4.62l6.5-2.55C628,406.3,627,404.69,625.49,403.12Z" transform="translate(-203.23 -87.04)"/><path class="cls-7" d="M633.06,400.37l-5.44,2.13a42.48,42.48,0,0,0,4.53,4.47l5.6-2.47C636.38,403.12,635.06,402.06,633.06,400.37Z" transform="translate(-203.23 -87.04)"/><path class="cls-7" d="M619.49,397.12l-5.68,2.13a41.25,41.25,0,0,0,3.56,4.56l6.14-2.19C622,400.3,621,398.69,619.49,397.12Z" transform="translate(-203.23 -87.04)"/><path class="cls-7" d="M626.88,394.31l-5.53,2.09c1.32,1.47,2.26,3.33,3.8,4.57l5.66-2.47C629.44,397.12,628.62,396.14,626.88,394.31Z" transform="translate(-203.23 -87.04)"/><path class="cls-7" d="M641.25,397l-5.87,2.37c1.44,1.45,3.18,2.75,4.62,4.19l7-2.81Z" transform="translate(-203.23 -87.04)"/><path class="cls-7" d="M556.26,439.72l-9.51,3.78,2,4.75,10.34-4.05C558.14,443,557.66,440.92,556.26,439.72Z" transform="translate(-203.23 -87.04)"/><path class="cls-7" d="M569.3,434.54c.86,1.48,2.16,3,3.1,4.44l7.6-3a26.44,26.44,0,0,0-2.68-4.64Z" transform="translate(-203.23 -87.04)"/><path class="cls-7" d="M579.3,430.54c.86,1.48,2.16,3,3.1,4.44l7.6-3a26.44,26.44,0,0,0-2.68-4.64Z" transform="translate(-203.23 -87.04)"/><path class="cls-7" d="M605.88,420l-16.75,6.67c1.11,1.85,1.91,3,2.68,4.56l1.19-.35h0l15.9-6.23C607.83,423.19,607,421.47,605.88,420Z" transform="translate(-203.23 -87.04)"/><path class="cls-7" d="M607.71,419.29a31.31,31.31,0,0,0,3.25,4.57l13.58-5.32a32.34,32.34,0,0,1-3.86-4.4Z" transform="translate(-203.23 -87.04)"/><path class="cls-7" d="M641.57,406.24l-6.2,2.46c1.26,1.3,3.07,3.24,4.13,4.42l6.31-2.62A50.2,50.2,0,0,0,641.57,406.24Z" transform="translate(-203.23 -87.04)"/><path class="cls-7" d="M650,402.5l-6.74,2.68c1.89,1.28,3,2.94,4.73,4.16l7.26-2.84Z" transform="translate(-203.23 -87.04)"/><path class="cls-7" d="M558.35,438.89a15.36,15.36,0,0,0,3,4.42l8.94-3.51a33.1,33.1,0,0,0-3-4.46Z" transform="translate(-203.23 -87.04)"/><path class="cls-7" d="M550.5,451l2,4.25,6.69-2.6c-.89-1.31-2-2.63-2.8-3.95Z" transform="translate(-203.23 -87.04)"/><path class="cls-7" d="M608.21,428.45l-49.84,19.47a33.44,33.44,0,0,0,2.65,4l50-19.39A32.58,32.58,0,0,0,608.21,428.45Z" transform="translate(-203.23 -87.04)"/><path class="cls-7" d="M659.25,408.5l-5.11,2c1.73.9,3.17,2.38,4.81,3.46l5-2Z" transform="translate(-203.23 -87.04)"/><path class="cls-7" d="M626.5,421.3l-6.77,2.64c.84,1.35,1.3,3.08,2.18,4.39l7.75-3A9.65,9.65,0,0,0,626.5,421.3Z" transform="translate(-203.23 -87.04)"/><path class="cls-7" d="M645.41,413.91l-6.2,2.42a30.92,30.92,0,0,0,3.5,3.93l6.61-2.57C648.2,416.16,646.41,415.62,645.41,413.91Z" transform="translate(-203.23 -87.04)"/><path class="cls-7" d="M652.25,411.23l-5.45,2.14c1.26,1.25,2.52,2.52,3.73,3.86l6.17-2.4C655.22,413.6,653.73,412.66,652.25,411.23Z" transform="translate(-203.23 -87.04)"/><path class="cls-7" d="M618.09,424.59c.37,1.4,1.92,2.81,2.6,4.21l1.22-.47c-.88-1.31-1.34-3-2.18-4.39Z" transform="translate(-203.23 -87.04)"/><path class="cls-7" d="M609.74,427.85a28.44,28.44,0,0,1,2.54,4.21l8.4-3.26c-.67-1.4-2.22-2.81-2.59-4.21Z" transform="translate(-203.23 -87.04)"/><path class="cls-8" d="M608.12,439.43c-.55-6.72-2-13.82-7-18.64a13.19,13.19,0,0,0-9-3.85c-1.78,0-5.3.88-5.86,3-.64,2.44,2.84,2.74,4.4,3.07,4.34.93,7.18,3.52,7.61,7.83-3.17-2.65-6.81-4.51-10-.81-2.75-.28-5.87.5-7.5,2.93-.53.77-.66,2.09-1.48,2.31a8.34,8.34,0,0,0-3.55,2.41c-1.6,1.67-2.36,4.56-.83,6.5,1.32,1.67,4.69-1.14,5.74-1.8,1.78-1.11,4-1.86,5.73-.24,1.33,1.24,1.69,3.55,2.12,5.24a99.3,99.3,0,0,0,4.51,13.9c2.48,6,5.39,13.69,11.79,16.39a.25.25,0,0,0,.19.17l.67.17a.32.32,0,0,0,.17-.61l-.09,0c2-1.84,3.23-4.89,5-7,1.13-1.34,2.25-2.7,3.42-4a28.34,28.34,0,0,1,2.69-2.14.33.33,0,0,0-.07-.52C608,458.21,608.85,448.39,608.12,439.43Z" transform="translate(-203.23 -87.04)"/><path class="cls-8" d="M655.34,445.47a84.48,84.48,0,0,1-4.19-8.87,43.34,43.34,0,0,1-3.33-9.81c-.79-4.65.4-9.28-.36-14-.23-1.42-1.28-5.65-3.66-4.17a4.28,4.28,0,0,0-2,3.77,32.69,32.69,0,0,1-.24,4.52c-.26,1.24-.59,2.75-.87,3.88-1.06-2.83-2.07-6.28-4.5-8.76-2.68-2.73-7.19-5.68-11.19-5.09a2.84,2.84,0,0,0-2.23,2.39c-.25,1.45,1.55,2.47,2.54,3.07,2.05,1.23,4.09,2.21,5.78,4a10.32,10.32,0,0,1,2.1,3.78,22.08,22.08,0,0,0-6.45-4.72c-3.37-1.57-9-2.5-12,.27a2.21,2.21,0,0,0-.57,2.41c.91,1.75,3,1.82,4.68,2.25a16.19,16.19,0,0,1,9,6,40.93,40.93,0,0,1,3.28,6c-1.86-.9-3.53-2.64-5.41-3.55a16.3,16.3,0,0,0-7.48-1.64c-2.88.1-5.31,3.77-2.27,5.68,1.83,1.14,4,1.39,5.65,2.83,2.71,2.34,4.44,5.7,6.4,8.64a17.83,17.83,0,0,0,13.53,8.18.43.43,0,0,0,.17,0l.07,0,.51,0a.26.26,0,0,0,.27-.15c2.06-.47,3.79-1.84,5.6-2.92,2.26-1.35,4.76-2.13,7-3.58A.39.39,0,0,0,655.34,445.47Z" transform="translate(-203.23 -87.04)"/><path class="cls-1" d="M623.46,468.58c-2.14-2-4.26-4.08-6.4-6.1-1.48-1.38-3-2.73-4.52-4-.44-.37-.65-.67-1.18-.52-2.6.68-5.06,2.58-7.26,4a.42.42,0,0,0-.19.27A26.6,26.6,0,0,0,594.12,474a.46.46,0,0,0,.07.53c3.81,4.5,7.35,9.23,10.95,13.91A52.32,52.32,0,0,1,623.46,468.58Z" transform="translate(-203.23 -87.04)"/><path class="cls-1" d="M670.45,452.51c-1.64-1.14-3.26-2.31-4.88-3.44a58.31,58.31,0,0,0-5.85-3.78,7.81,7.81,0,0,0-2.9-1.13.4.4,0,0,0-.42-.2c-3.24.57-6.39,2.72-9.1,4.47-3.14,2-6.84,4.55-8.61,8a.56.56,0,0,0,.09.67c3.87,3.73,8.43,6.51,12.73,9.67C655.58,459.92,663,455.93,670.45,452.51Z" transform="translate(-203.23 -87.04)"/><path class="cls-3" d="M542.09,389c-.31-.73-1.4-.74-2-.73a23.63,23.63,0,0,0-2.72.21,5,5,0,0,0-3.74,5.36c.22,2.4,3.42,2.14,5,1.18S543.06,391.25,542.09,389Z" transform="translate(-203.23 -87.04)"/><path class="cls-1" d="M552.52,390.07a4.43,4.43,0,0,1-4.59.14,12.59,12.59,0,0,1-.31-1.28,2.8,2.8,0,0,0,3.63-1.12.29.29,0,0,0-.5-.29,2.82,2.82,0,0,1-3.24.81c-.16-.91-.28-1.86-.46-2.84a7.25,7.25,0,0,0-4.92-5.89c-4.44-1.47-5,5.4-4.75,8.62-3.59-.31-6.57,7.64-1.36,8.08,3.3.28,6.79-3.46,6.63-6.64-.12-2.43-2.85-2.22-4.78-1.51a11.69,11.69,0,0,1,1-5.06c.47-1,1-2.1,2.25-2.2,1.55-.12,3.14,1.52,3.85,2.71,1.31,2.16,1.32,4.91,2,7.23a.18.18,0,0,0-.16.26c.76,1.69-.52,3.29-1.75,4.34-.28.25.1.74.4.52a4.61,4.61,0,0,0,2.09-3.65,5.28,5.28,0,0,0,3.32,2.71.36.36,0,0,0,.27-.65,6.5,6.5,0,0,1-3-3.37c1.43.74,3.64.66,4.68-.44C553.1,390.31,552.8,389.86,552.52,390.07ZM542,390c.15,2.93-3.29,5.66-6,5.74-4,.13-2.26-5.73.43-6.75,0,.15.1.3.28.24s1.55-.36,1.56-.52C540,388.2,541.89,387.89,542,390Z" transform="translate(-203.23 -87.04)"/><path class="cls-1" d="M566.92,385c-1.64.29-3.07.52-4.37-.73a10.15,10.15,0,0,1-1.72-2.45c.19-2.89-.89-6.18-1.81-8.61s-1.72-4.92-3.76-6.39a4.17,4.17,0,0,0-3.11-.52c-1.43.5-2.23,1.89-3.54,2.49a1.83,1.83,0,0,0-1.43.89,9.35,9.35,0,0,0-2.52.39h-.06c-2,.71-4.13-2.33-5.87-.09-.6.78-.07,1.77.51,2.38a4.19,4.19,0,0,0,3.22,1c.38,2.56,4.25,2.57,6.07,2.05,2.12-.61,4.79-2.72,3.46-5.15a3.16,3.16,0,0,0-1.66-1.26c1.3-.76,2.41-1.84,4.23-1s2.78,3.92,3.54,5.59a21.38,21.38,0,0,1,1.85,7.31,7.29,7.29,0,0,1-2.86,5.82c-.31.25.09.7.41.53a5.75,5.75,0,0,0,2.88-3.24c0,.85,0,1.7,0,2.56a4.88,4.88,0,0,1-2,4.18c-.26.24.07.58.35.46,2.56-1.14,2.39-3.64,2.18-6a6.61,6.61,0,0,0,5.34,4.08c.37,0,.4-.51.09-.61a8.37,8.37,0,0,1-4-2.3,7.83,7.83,0,0,1-1.56-2.93V383a6.81,6.81,0,0,0,1.58,2.15,4.53,4.53,0,0,0,4.63.45A.3.3,0,0,0,566.92,385Zm-15.34-13.9c.72,1.92-2.26,3.35-3.61,3.75-1.67.5-4.8.24-5.06-2-.22-1.83,2.11-2.5,3.45-2.66.27,0,.53,0,.8-.05a19.75,19.75,0,0,0,2.42,0,.2.2,0,0,0,0-.4c-.44,0-.56-.06-1.14-.08l.11,0a3.43,3.43,0,0,0,.56-.08A2.43,2.43,0,0,1,551.58,371.14Z" transform="translate(-203.23 -87.04)"/><path class="cls-1" d="M580.42,382a14.24,14.24,0,0,1-5.6-2.34,3.51,3.51,0,0,0,.6.19c1.5.24,3.07,0,4.58.12.37,0,.43-.54.09-.63a17.83,17.83,0,0,0-3.93-.32c-1.87-.09-3.74-3-4.46-4.51-1.42-3-1.82-6.32-2.78-9.45-.14-.45-.3-.93-.49-1.42A7,7,0,0,0,571,360.8c.63-1.5.26-2.64-.17-4.11-.14-.51-.46-1.05-.71-1s-.41.5-.6,1.06a7.4,7.4,0,0,1-1,1.52,5.08,5.08,0,0,0-.73,1.52,5.37,5.37,0,0,0-.07,2.22c-1.16-2.43-2.92-4.73-5.38-5.11a4.3,4.3,0,0,0,1.39-1.33c.89-1.39-.08-3.16-.59-4.49a.33.33,0,0,0-.48-.2c-1.55.92-3.22,4-2.26,5.86a7.92,7.92,0,0,0-1.24-.1c-2.57-.05-3.61,1.76-5.83,2.77-.24.11-1.24.64-1.18.84s1,.54,1.28.56c1.77.18,3.4.53,5.08-.3a3,3,0,0,0,1.61-1.49c.17-.32.3-.85.5-1.3,3.92.73,5.69,4.1,6.81,7.7-1.41-.09-2.63-.7-4.25-.61a4.54,4.54,0,0,0-2.91.91c-.22.17-.63.65-.36.75,1.55.61,2.72,2.72,4.71,2.17a5.89,5.89,0,0,0,3.1-2.26c.33,1.19.62,2.38.89,3.48a19.7,19.7,0,0,0,3.79,7.53c.22,1.59-.66,3.48-1.31,4.81a.27.27,0,0,0,.42.32,5.46,5.46,0,0,0,1.56-4.11s.37.72.5.87c.17.33.33.68.5,1a13.7,13.7,0,0,1-1.34,6.87.31.31,0,0,0,.48.37c1-1,1.66-3.5,1.6-5.74,1.08,2.08,2.47,3.9,5.18,3.55.37-.05.53-.63.1-.71-1.8-.33-3-.75-4.11-2.31a19.17,19.17,0,0,1-1.1-1.85,10.08,10.08,0,0,0,5.44,2.17A.33.33,0,0,0,580.42,382Z" transform="translate(-203.23 -87.04)"/><path class="cls-5" d="M539,320a4.25,4.25,0,0,0,2.86-4,4.13,4.13,0,0,0-1-2.68A11,11,0,0,0,539,320Z" transform="translate(-203.23 -87.04)"/><path class="cls-3" d="M537.5,311.75a4.25,4.25,0,1,0,0,8.5A4.5,4.5,0,0,0,539,320a11,11,0,0,1,1.85-6.65A4.4,4.4,0,0,0,537.5,311.75Z" transform="translate(-203.23 -87.04)"/><path class="cls-5" d="M547.1,325a4.62,4.62,0,0,0,1.4.24c2.42,0,3.63-1.9,3.63-4.25a5.39,5.39,0,0,0-.48-2.29C547.88,317.84,545.31,320.72,547.1,325Z" transform="translate(-203.23 -87.04)"/><path class="cls-3" d="M551.65,318.71a3.3,3.3,0,0,0-3.15-2,4.31,4.31,0,0,0-4.37,4.25,4.24,4.24,0,0,0,3,4C545.59,321.06,547.78,317.91,551.65,318.71Z" transform="translate(-203.23 -87.04)"/><path class="cls-5" d="M509,316a.9.9,0,0,1-.84.28,4.13,4.13,0,0,0-1,2.72,4.31,4.31,0,0,0,4.37,4.25,4.36,4.36,0,0,0,.81-.08A7.19,7.19,0,0,0,509,316Z" transform="translate(-203.23 -87.04)"/><path class="cls-3" d="M515.88,319a4.31,4.31,0,0,0-4.38-4.25,4.39,4.39,0,0,0-3.34,1.53,5.5,5.5,0,0,1,3.43,2.53,7.76,7.76,0,0,1,.72,4.36A4.28,4.28,0,0,0,515.88,319Z" transform="translate(-203.23 -87.04)"/><path class="cls-5" d="M498.54,324.93a4.25,4.25,0,0,0-1.14,4.61A4.31,4.31,0,0,0,503,332h0C504.25,327.87,502.6,324.44,498.54,324.93Z" transform="translate(-203.23 -87.04)"/><path class="cls-3" d="M504.75,326.75c-.67-2.42-2.48-3.58-4.74-2.73a4.24,4.24,0,0,0-1.47.91c4.06-.49,5.46,3.69,4.46,7.05C505.13,330.5,505.38,329,504.75,326.75Z" transform="translate(-203.23 -87.04)"/><path class="cls-5" d="M502.88,337.5c2.75,1.5,3.18,3.26,1.31,4.79s-5.6.29-7.44-1.17c-2.86-2.27-1-5,1.63-5.25C500.78,335.65,501.24,336.61,502.88,337.5Z" transform="translate(-203.23 -87.04)"/><path class="cls-5" d="M560.25,327.12c2.75,1.5,3.38,3,1.94,4.17-1.87,1.52-6.1.42-7.94-1-2.86-2.27-1.12-4.88,1.5-5.13C558.15,324.9,558.62,326.23,560.25,327.12Z" transform="translate(-203.23 -87.04)"/><ellipse class="cls-3" cx="321.27" cy="227.96" rx="4.38" ry="4.25"/><path class="cls-4" d="M486.75,296l17.77-2.95,27.05-29.89-29,5.33C499.59,281.83,486.75,296,486.75,296Z" transform="translate(-203.23 -87.04)"/><path class="cls-4" d="M582.36,245.62c-5.87.66-14.38,1.85-23.36,3.13l-.81-6.31-25.25,3.62.66,6.32h.06l1,7.4,12.24-13.52,13,9.79-.93-7.29Z" transform="translate(-203.23 -87.04)"/><path class="cls-4" d="M593.64,255l-29.84,3.9,23.44,17.57C590,272.2,594.24,264,593.64,255Z" transform="translate(-203.23 -87.04)"/><path class="cls-6" d="M559.94,256.06l3.81,2.88h0L559.93,256Z" transform="translate(-203.23 -87.04)"/><path class="cls-5" d="M592.25,248.37a29.09,29.09,0,0,0-1.25-3.29c-.15-.32-3.24-.06-8.64.54L559,248.75l.93,7.29,3.87,2.89,29.84-3.9A24.37,24.37,0,0,0,592.25,248.37Z" transform="translate(-203.23 -87.04)"/><path class="cls-6" d="M531.65,263.15c.81-1,2.39-2.62,3-3.34v0l-3.07,3.39Z" transform="translate(-203.23 -87.04)"/><path class="cls-5" d="M533.6,252.38l0,.12c-16.63,2.61-30.37,5-30.37,5.5,0,4.5.15,4.82-.25,8a25,25,0,0,1-.44,2.49l29-5.33,3.07-3.39-1-7.4Z" transform="translate(-203.23 -87.04)"/><path class="cls-5" d="M544.5,236.75c-7.35,1-11.6,4.46-11.25,9.37,0,.51-.09,3.4.06,3.88,4.09-.6,7.65-1.16,11.77-1.75.5-.65,1-1.23,1.73-2,.79.56,1.36,1,2,1.48,3.44-.49,6.52-.93,10-1.4C557.81,238.69,552.25,235.67,544.5,236.75Z" transform="translate(-203.23 -87.04)"/><rect class="cls-5" x="538.42" y="235.24" width="11.59" height="2.76" transform="translate(-230.91 -8.87) rotate(-8.01)"/><polygon class="cls-5" points="330.08 162.96 328.58 151.27 330.55 150.98 331.92 162.61 330.08 162.96"/><polygon class="cls-5" points="355.58 159.27 353.99 148.15 352.11 148.49 353.89 159.52 355.58 159.27"/><path class="cls-2" d="M514,291.15c-.44.47.27,1.18.71.7,12.61-13.77,24.91-27.24,37.52-41a2.64,2.64,0,0,0,.21-.29,7.25,7.25,0,0,0-.75-.58Z" transform="translate(-203.23 -87.04)"/><path class="cls-2" d="M557.56,254.18q-18.28,20-36.58,40c-.44.47.27,1.18.71.7q18.33-20,36.68-40.07A6,6,0,0,0,557.56,254.18Z" transform="translate(-203.23 -87.04)"/><path class="cls-2" d="M563.83,259.21c-9.77,10.68-19.34,21-29.12,31.68a3.31,3.31,0,0,0,.91.48c9.75-10.65,19.17-21,28.92-31.66A3.18,3.18,0,0,0,563.83,259.21Z" transform="translate(-203.23 -87.04)"/><path class="cls-2" d="M570.23,263.83l-22,24a2.76,2.76,0,0,1,.91.48c7.25-7.92,14.61-15.92,21.86-23.84A2.39,2.39,0,0,1,570.23,263.83Z" transform="translate(-203.23 -87.04)"/><path class="cls-2" d="M576.54,268.67,560.71,286a3.85,3.85,0,0,0,.78.63c5.35-5.84,10.46-11.46,15.8-17.3C577.14,269,576.84,268.87,576.54,268.67Z" transform="translate(-203.23 -87.04)"/><path class="cls-2" d="M583,273.31l-10.5,11.48c.3.17.59.34.87.52L583.79,274A4.47,4.47,0,0,1,583,273.31Z" transform="translate(-203.23 -87.04)"/><path class="cls-2" d="M587.61,284.05c.52.38,0,1.21-.56.83l-44.76-33a3.07,3.07,0,0,1-.26-.25,5.57,5.57,0,0,1,.63-.71Z" transform="translate(-203.23 -87.04)"/><path class="cls-2" d="M537.69,256.22l43.63,32.13c.52.38,0,1.21-.56.83L537,257A8.29,8.29,0,0,1,537.69,256.22Z" transform="translate(-203.23 -87.04)"/><path class="cls-2" d="M532.51,262.37c11.66,8.58,23,16.85,34.71,25.44a3.51,3.51,0,0,1-.8.65c-11.63-8.57-22.88-16.9-34.51-25.47A4,4,0,0,1,532.51,262.37Z" transform="translate(-203.23 -87.04)"/><path class="cls-2" d="M527.14,268.13l26.23,19.33a2.66,2.66,0,0,0-.8.64c-8.65-6.36-17.42-12.79-26.06-19.16A2.57,2.57,0,0,0,527.14,268.13Z" transform="translate(-203.23 -87.04)"/><path class="cls-2" d="M521.88,274.11,540.76,288a4.07,4.07,0,0,1-.65.77c-6.37-4.7-12.47-9.22-18.85-13.92C521.35,274.53,521.62,274.37,521.88,274.11Z" transform="translate(-203.23 -87.04)"/><path class="cls-2" d="M516.41,279.92l12.52,9.23c-.26.22-.51.45-.75.68l-12.39-9.12A4.16,4.16,0,0,0,516.41,279.92Z" transform="translate(-203.23 -87.04)"/><path class="cls-2" d="M511.41,285.92l12.52,9.23c-.26.22-.51.45-.75.68l-12.39-9.12A4.16,4.16,0,0,0,511.41,285.92Z" transform="translate(-203.23 -87.04)"/><path class="cls-8" d="M526.69,287.44a6,6,0,0,0-2.76-4.65,5.18,5.18,0,0,0-2.11-.84,6,6,0,0,0-1.58-.06c-.34.06-1.17.38-1.72.46-.19-.25-.83,0-.84,0a.38.38,0,0,0-.11.11c-.44.71-3.9,3.48-6.32,2.81-.93-.26-2.56-2.5-3.67-1.14-.64.79,1,3.06,3.23,3.95,2.95,1.2,4.57-1.74,6,1.8.09.2.06,1.05.3,1,3.93-.57,6.06-.87,8.87-1.44C529.38,288.81,526.75,288.62,526.69,287.44Z" transform="translate(-203.23 -87.04)"/><path class="cls-5" d="M522.29,275.27a4.07,4.07,0,0,0-5.39-2.61.47.47,0,0,0-.2,0c-5.75,2-.32,13.31,4.61,9.71C523.37,280.89,523.05,277.34,522.29,275.27Z" transform="translate(-203.23 -87.04)"/><path class="cls-6" d="M515.88,279.69c0-1,.08-3.81,1.12-4.44,3.22-1.93,5,.25,5.5,1.56.63,1.5,1.1-1.84-.37-3.94-1.93-2.72-6.15-1.09-8.13,1.63-1.67,2.29-2.76,3.88-2,7.12.19,1.13,2,1.07,2.63.75A3.55,3.55,0,0,0,515.88,279.69Z" transform="translate(-203.23 -87.04)"/><path class="cls-5" d="M541.62,278.66c-.53,0-1,1.1-1.34,1.43-1.55,1.67-3.18,1.43-5.19.23a.5.5,0,0,0-.61.08c-1.16,1.22-2.41,1-3.74.74-.14-.14-.8-.39-1-.27a6.45,6.45,0,0,0-3.34,3.94,6.57,6.57,0,0,0,.25,3c.37,1.71.68,1.33,1,1.3,2.07-.23,2.62-.32,4.78-.63,1.81-.26,3.74-.64,5.56-.91.28,0,.18-.63.12-.87s-.66-2.09-.39-2.15a14.39,14.39,0,0,0,3.39-1.26,4.06,4.06,0,0,0,1.75-3.47C542.83,279.13,542.59,278.66,541.62,278.66Z" transform="translate(-203.23 -87.04)"/><path class="cls-6" d="M534.79,273.83c-1.32-1.35-3.74-1.69-5-.32-1.72.66-2.15,3.58-1.71,5.16.72,2.56,4.3,3.91,6.4,2.23A4.62,4.62,0,0,0,534.79,273.83Z" transform="translate(-203.23 -87.04)"/><path class="cls-6" d="M543.13,277.58c-.21-.12-.53-.26-.62-.55-.22-.68.16-1.78-.22-1.74-.75.08-.62,1.63-1,2.21-.75-.13-.9-1.93-1.54-1.58-.46.25-.12.74-.08.91a16.51,16.51,0,0,1,.62,2.42c.29.88.93,1,2,.67C542.85,279.7,544.16,278.2,543.13,277.58Z" transform="translate(-203.23 -87.04)"/><path class="cls-8" d="M534,271.78c-.19-.6-2.39-.13-2.94.05a15.14,15.14,0,0,0-2.85,1.1c-1.68.94-1.71,1.92-.9,3.13.19.28.47.8.6.69.65-.53,1-1.38,1.93-1.69a24.17,24.17,0,0,0,4.22-1.65C534.34,273.19,534.25,272.56,534,271.78Z" transform="translate(-203.23 -87.04)"/><path class="cls-5" d="M508.66,281.48a1.49,1.49,0,0,0-2.52.32,2.41,2.41,0,0,0,.6,2.59,1.38,1.38,0,0,0,2.27-.3A2.42,2.42,0,0,0,508.66,281.48Z" transform="translate(-203.23 -87.04)"/><rect class="cls-8" x="477.71" y="194.98" width="1.25" height="5" transform="translate(-235.63 27.02) rotate(-13.16)"/><polygon class="cls-6" points="291.19 100.99 275.49 81.95 272.41 84.49 272.4 84.42 267.73 85.36 272.61 109.55 277.28 108.61 272.74 86.11 287.52 104.02 291.19 100.99"/><polygon class="cls-8" points="272.77 75.29 269.49 76.32 267.87 71.77 265.98 72.44 267.58 76.92 264.27 77.96 268.1 88.79 277.77 84.79 272.77 75.29"/><polygon class="cls-8" points="292.39 106.46 287.52 104.02 291.19 100.99 292.39 106.46"/><path class="cls-5" d="M515.18,167.94c-8.91.59-13.85,4.47-15.52,12.86-.1.52-.86,5.15-.85,5.89l0,.35,6,.53.7-3.26c6.37.76,12.67,1.55,19,2.24l-.4,2.82,6.33.76.23-.32a46.93,46.93,0,0,0,1.54-10.14C531.69,172.6,524.09,167.35,515.18,167.94Z" transform="translate(-203.23 -87.04)"/><path class="cls-4" d="M525.63,181.87c-.18.54.52-2.36-.44-4.06-1.06-1.87-3.31-4-7.81-4.5-5.75-.64-8.63,1.25-9.75,3.13-.93,1.54-1.36,3.56-1.44,3.31C513.69,180.62,518.06,181.19,525.63,181.87Z" transform="translate(-203.23 -87.04)"/><polygon class="cls-3" points="300.64 95.83 285.52 86.96 300.89 75.08 300.64 95.83"/><path class="cls-6" d="M422.23,113.59c-2-2.84-5.41-6.51-8.73-7.72a10,10,0,0,0-9.62,1.63c-.66.54-2.67,3.14-3.38,2.75a16.41,16.41,0,0,0-6-2.38c-4.08-.57-7.65,2.25-10.25,5.38-5.64,6.79-4.63,16.21-3.3,24.44.89,5.48,2.32,10.77,1.51,16.36-.7,4.88-3.12,9.41-5.75,13.51a.63.63,0,0,0,.54.94c4.45-.09,10.91.88,14.22-2.94,1.6-1.86,1.53-3.45,1.65-5.85a101.77,101.77,0,0,1,1.45-10.43c.84-5.6-.62-11.62-1.34-17.18a35.79,35.79,0,0,1,.22-11.73,9.79,9.79,0,0,1,2.67-4.73c1.67-1.73,3.93-1.64,6.13-1.7a52.52,52.52,0,0,0,7.38.81c4.31.13,7.81,1.17,12.12.25C422.09,114.93,422.43,113.88,422.23,113.59Z" transform="translate(-203.23 -87.04)"/><path class="cls-8" d="M413.75,156.19a8.3,8.3,0,0,0-3.63-2.14c-3.55-1.46-7.69-2.78-11.35-1a.4.4,0,0,0-.16.61c-7.21,5-9.22,14.25-12.8,21.84a4.5,4.5,0,0,0-.37,3.7c5.69-1.44,10.5-2.29,15.74-3.66A101.17,101.17,0,0,1,413.75,156.19Z" transform="translate(-203.23 -87.04)"/><path class="cls-4" d="M423.08,138c-2.34-3.88,3.89-5.13,6.17-6.37a1.67,1.67,0,0,0,.17-2.59c-3.84-2-5.85-4.66-8.8-7.72a46.83,46.83,0,0,1-4.92-5.89,10.43,10.43,0,0,0-3.61-3.62h-.16c-3.54-1.76-8.24-.74-11.76.67-4.81,1.92-7.93,6-10,10.63-2.76,6.14-2,11.67-.32,18,1.47,5.66,3.44,11.35,7.9,15.35a25.35,25.35,0,0,0,11.43,5.62c5.81-7.63,7.12-10.5,18.12-14.32a15.77,15.77,0,0,0-.41-3.43C426.24,142,424.34,140.12,423.08,138Z" transform="translate(-203.23 -87.04)"/><path class="cls-3" d="M397.38,131.25a14,14,0,0,0,6,.62c2-.25,4.75-1.62,5.25-3.75s-2-3.87-3.63-4.37a5.59,5.59,0,0,0-5.92,1.67,7.59,7.59,0,0,0-1.7,5.83" transform="translate(-203.23 -87.04)"/><path class="cls-3" d="M416,121.67a4.31,4.31,0,0,0-2.09,3.65c1.52.81,3,1,3.61-1,.19-1.21-.76-3.65-1.9-1.82" transform="translate(-203.23 -87.04)"/><path class="cls-6" d="M399,124.92a.37.37,0,0,0,.32.6,5.36,5.36,0,0,0,.48,4c.95,1.68,3.42,1.47,4.77.47s2.23-3.79.81-5.24A4.34,4.34,0,0,0,399,124.92Z" transform="translate(-203.23 -87.04)"/><path class="cls-6" d="M416.5,120.76l0,0c-1,.19-.94,1.9-.83,2.67.17,1.18,1.6,3.43,3,2.71C420.7,125.12,418.24,119.77,416.5,120.76Z" transform="translate(-203.23 -87.04)"/><path class="cls-1" d="M426.49,130.57c-1.53-1.13-3.84-.76-5.47,0a5.79,5.79,0,0,0-2.27,1.64,15,15,0,0,0-1,1.44c0-.08-.1-.19-.35-.41a4.53,4.53,0,0,0-3.22-1.17,12.67,12.67,0,0,0-1-4c-.59-1.6-.89-3.35-1.61-4.9a9.62,9.62,0,0,0-6.69-5.59c-6.79-1.53-11.65,4.52-11.31,10.87a.42.42,0,0,0,.83.11c.89-2.7.93-5.15,3.1-7.31,1.91-1.9,5-2.32,7.55-1.87,2.9.52,4.91,2.88,6,5.47a41.38,41.38,0,0,1,2.29,7.34,4,4,0,0,0-2.84,4.9.52.52,0,0,0,1,0,6.67,6.67,0,0,1,.92-2.42c1.23-2,3.67-1.26,4.7.44a.66.66,0,0,0,.55.32c1-.07,1.24-1.38,1.63-2.16,1.26-2.53,4.54-3.11,7-2.19C426.6,131.26,426.75,130.76,426.49,130.57Z" transform="translate(-203.23 -87.04)"/><path class="cls-1" d="M409.47,128.3l.31-.27a.41.41,0,0,0,.11-.4c-.83-3.26-4.62-5.25-7.75-4.8-3.9.55-5.77,5.12-5.24,8.58a.28.28,0,0,0,.54,0c.51-3.22.66-6.24,4.25-7.59,2.67-1,7.05,1.51,7.46,4.4,0,.16.23.17.32.08Z" transform="translate(-203.23 -87.04)"/><path class="cls-1" d="M416.53,118.92a7.32,7.32,0,0,1-1.7,3,18.48,18.48,0,0,0-1.78,3.27.52.52,0,0,0,.31.76c1.17.27,2.31.63,3.45,1s2.65.55,3.62,1.39a.57.57,0,0,0,.8-.8,5.93,5.93,0,0,0-2.87-1.65c-1.64-.52-3.1-1.19-4.86-1l.5.66a13,13,0,0,1,1.9-3.64,5.24,5.24,0,0,0,1.25-3c0-.35-.56-.44-.62-.08Z" transform="translate(-203.23 -87.04)"/><path class="cls-2" d="M417.72,147.16a9,9,0,0,0,6.66-3.78c1.42-2.11-.42-2.61-2.33-2.53-2.24.1-4.42,1.14-6.51,1.85-2.37.8-4.89.76-7.23,1.71l-.05,0a.27.27,0,0,0-.32.42v0a.43.43,0,0,0,.47.48C410.58,147.2,415.18,147.33,417.72,147.16Z" transform="translate(-203.23 -87.04)"/><path class="cls-5" d="M424.81,140.69c-1.07-1.46-4.95-3-5.5-.15-1.66-1.07-3.23-.92-3.78,1-2.59-1.53-7.14-1-8.1,2.27a.61.61,0,0,0,.57.75,55.76,55.76,0,0,0,10-.46,15.79,15.79,0,0,0,6.47-2.31.37.37,0,0,0,.54-.12.71.71,0,0,0,.06-.25A.42.42,0,0,0,424.81,140.69Z" transform="translate(-203.23 -87.04)"/><path class="cls-5" d="M400.49,162.59c-2.42.45-3.93,2.26-5.84,3.58a94.9,94.9,0,0,0,6.27-14.3c.23-.69,3.16-7.7,1.45-8.16-2.37-.63-5.27,4.55-5.94,6.22-.17.45-.33.91-.49,1.37.55-2.72,1.47-7.29-.31-9.65a.45.45,0,0,0-.69-.09c-1.15,1.07-1.58,2.77-2.16,4.18a43,43,0,0,0-2.72,7.68c-.57,2.67-.75,5.44-1.06,8.15,0,.05,0,.11,0,.17,0-.85-.06-1.7-.14-2.55-.14-1.72.31-5.16-1.43-6.26a.55.55,0,0,0-.54,0c-1.43.92-1.4,3.32-1.69,4.79-.66,3.27-1.33,6.51-1.83,9.81-.68,4.62-1.28,8.35-2,13,3.43-1,6.06-1.63,8.87-2.31a12.17,12.17,0,0,1,1.17-1.74,49.11,49.11,0,0,1,4.3-5.35c1.33-1.49,2.78-2.9,4.21-4.29.85-.82,1.9-1.26,2.39-2.4C403,163,401.7,162.36,400.49,162.59Z" transform="translate(-203.23 -87.04)"/><path class="cls-8" d="M388.23,173.51l-1-.27a34.57,34.57,0,0,0,1-11.22c0-.34,0-.81,0-1.37a14.92,14.92,0,0,0-.26-4l1-.28a15.85,15.85,0,0,1,.3,4.32c0,.51,0,1,0,1.28A35.48,35.48,0,0,1,388.23,173.51Z" transform="translate(-203.23 -87.04)"/><path class="cls-8" d="M392.94,163.86l-.88-.47a31.19,31.19,0,0,0,3.2-8.75,32.39,32.39,0,0,0,0-11.78l1-.22a34,34,0,0,1,0,12.23A32.69,32.69,0,0,1,392.94,163.86Z" transform="translate(-203.23 -87.04)"/><path class="cls-8" d="M391.56,171.38l-.87-.51.07-.11a22.18,22.18,0,0,1,3.54-4.95l.44-.44a27.67,27.67,0,0,1,2.58-2.39l.61.79a28,28,0,0,0-2.48,2.3l-.45.45a22.08,22.08,0,0,0-3.38,4.74Z" transform="translate(-203.23 -87.04)"/><path class="cls-4" d="M279.44,209.59c-1.15-2.79-2.74-5.69-2.18-8.6.42-2.18,1.66-4.42,4-5.07,3.3-.94,6.52.43,9.19,2.37,2.38,1.72,5.3,4.32,6,7.28a.65.65,0,0,1,0,.34l8.27-2.24L282,180.33l-34,6.42S255.5,195,260.75,201,274,212,274,212l5.48-1.49A.6.6,0,0,1,279.44,209.59Z" transform="translate(-203.23 -87.04)"/><path class="cls-3" d="M296.41,205.57c-.7-3-3.62-5.56-6-7.28-2.67-1.94-5.89-3.31-9.19-2.37-2.3.65-3.54,2.89-4,5.07-.56,2.91-.07,4.64,1.07,7.43a7.47,7.47,0,0,0,1.15,2.09l16.92-4.6A.65.65,0,0,0,296.41,205.57Z" transform="translate(-203.23 -87.04)"/><path class="cls-5" d="M279.51,188.22c-2.34-1.28-5.1-.24-6.88,1.61-2.7,1.18-3.54,4.16-1.61,6.8,2.7,3.68,7.33,2.34,10.38,0C284.74,194,282.46,189.84,279.51,188.22Z" transform="translate(-203.23 -87.04)"/><path class="cls-5" d="M332.13,221.12l-22.46-12.45-29.67,9s10,7.83,16,12.08,17,8.75,17,8.75l4.2-1.91a1.43,1.43,0,0,1-.13-.28c-3.65-4.49-9.49-7.87-10.42-14s7.64-4.16,10.6-2.55a24.41,24.41,0,0,1,4,2.54c1.51,1.26,2.9,2.9,4.59,3.91,1.23.74,3.81,1.88,3.93,3.61a2.15,2.15,0,0,1-.25,1.16l1.58-.72A45.29,45.29,0,0,0,332.13,221.12Z" transform="translate(-203.23 -87.04)"/><path class="cls-4" d="M325.87,226.2c-1.69-1-3.08-2.65-4.59-3.91a25.09,25.09,0,0,0-4-2.54c-3-1.61-11.53-3.56-10.6,2.55s6.77,9.52,10.42,14a1.43,1.43,0,0,0,.13.28L329.55,231a2.15,2.15,0,0,0,.25-1.16C329.68,228.08,327.1,226.94,325.87,226.2Z" transform="translate(-203.23 -87.04)"/><path class="cls-7" d="M316.5,219.19a6.14,6.14,0,0,0-3.76-4.29,4.33,4.33,0,0,0-4.44.23,7.45,7.45,0,0,0-6.08,6.54c-.45,3.91,3.74,7,7.37,6.47C314.53,227.4,317.42,224.22,316.5,219.19Z" transform="translate(-203.23 -87.04)"/><path class="cls-6" d="M281.77,189.15c-.94-2-4.58-4-6.82-3.14a34.83,34.83,0,0,0-5,2.15c-.82.47-1.16,1.71-1.47,2.54-.45,1.22-1.39,4.82,1,4.82,1.52,0,1.3-2.15,1.19-3.57.51-1.13,2.66-2.39,3.35-2.85,3.2-2.13,4.22,1,7.16,1.1A.71.71,0,0,0,281.77,189.15Z" transform="translate(-203.23 -87.04)"/><path class="cls-2" d="M313.48,213.68a14.63,14.63,0,0,0-6.92-.27c-3.18.76-3.56,2.72-5.51,5-1.38,1.59-2.92,3.15-3.53,5.21A3.09,3.09,0,0,0,300,227.4c2.4.19,4.09-1.92,5.2-3.79.85-1.41,1-3.18,1.59-4.68s2-2,3.4-2.53c1.4.24,4.16,1.54,5.08,0S314.66,214.06,313.48,213.68Z" transform="translate(-203.23 -87.04)"/><g id="textes"><path class="cls-3" d="M577.8,347.48l-.27-1c7.14-2,18.82-6.79,22.27-8.31l.4.91C596.74,340.65,585,345.48,577.8,347.48Z" transform="translate(-203.23 -87.04)"/><path class="cls-3" d="M580.48,351l-.3-1c3-.94,5.14-1.66,8.05-2.81l2.95-1.14c3.32-1.28,8.35-3.22,11.63-4.53l.37.92c-3.28,1.32-8.31,3.26-11.64,4.54l-2.94,1.14C585.66,349.3,583.48,350,580.48,351Z" transform="translate(-203.23 -87.04)"/><path class="cls-3" d="M582.91,355.77l-.49-.87c3.76-2.09,9.32-4.18,14.7-6.2,3.07-1.16,6-2.25,8.52-3.33l.39.93c-2.57,1.08-5.48,2.17-8.56,3.33C592.13,351.64,586.6,353.72,582.91,355.77Z" transform="translate(-203.23 -87.04)"/><path class="cls-3" d="M585.71,359.12l-.42-.91c4.88-2.31,12.41-5.34,22.37-9l.35.94C598.07,353.8,590.57,356.82,585.71,359.12Z" transform="translate(-203.23 -87.04)"/><path class="cls-3" d="M587.38,362.45l-.42-.9c1.74-.81,3.83-1.67,5.85-2.5s3.86-1.6,5.48-2.34l.42.91c-1.64.75-3.61,1.56-5.52,2.35S589.1,361.66,587.38,362.45Z" transform="translate(-203.23 -87.04)"/><path class="cls-3" d="M601.64,356.65l-.28-1c.72-.2,1.94-.61,3.23-1a50.78,50.78,0,0,1,5.32-1.63l.18,1c-.93.17-3.19.93-5.18,1.6C603.6,356,602.38,356.44,601.64,356.65Z" transform="translate(-203.23 -87.04)"/><path class="cls-3" d="M589.38,366,589,365c3.14-1.43,7.71-3.13,12.13-4.77,3.87-1.43,7.52-2.78,10-3.9l.4.92c-2.55,1.12-6.21,2.48-10.09,3.92C597,362.85,592.48,364.53,589.38,366Z" transform="translate(-203.23 -87.04)"/><path class="cls-3" d="M450.13,326.32l-.26-1c2.35-.61,4.55-1.32,6.68-2,1.91-.62,3.88-1.25,5.92-1.8,1.36-.37,2.9-.75,4.53-1.16,4.45-1.13,9.5-2.4,13.5-3.85l.34.94c-4,1.47-9.12,2.75-13.6,3.87-1.62.41-3.15.8-4.51,1.16-2,.54-3.89,1.15-5.87,1.79C454.72,325,452.5,325.7,450.13,326.32Z" transform="translate(-203.23 -87.04)"/><path class="cls-3" d="M449.1,330.49l-.2-1a92.79,92.79,0,0,0,16.22-5.3l.43.91A94.57,94.57,0,0,1,449.1,330.49Z" transform="translate(-203.23 -87.04)"/><path class="cls-3" d="M469.4,324.83l-.13-1a81.25,81.25,0,0,0,9.06-2.29l1.87-.53.27,1-1.87.54A82.3,82.3,0,0,1,469.4,324.83Z" transform="translate(-203.23 -87.04)"/><path class="cls-3" d="M449.78,334.65l-.23-1c2.61-.63,6.18-1.89,9.63-3.11,2.93-1,5.71-2,7.84-2.61,4.14-1.13,8.82-2.48,12.5-3.6l.29.95c-3.69,1.13-8.37,2.48-12.52,3.62-2.1.57-4.86,1.55-7.77,2.58C456,332.74,452.45,334,449.78,334.65Z" transform="translate(-203.23 -87.04)"/><path class="cls-3" d="M451.8,338.32l-.26-1c3.8-1,8.54-2.7,12.72-4.2,2-.73,3.95-1.41,5.58-2l.32.95c-1.63.54-3.53,1.22-5.56,1.95C460.4,335.6,455.64,337.3,451.8,338.32Z" transform="translate(-203.23 -87.04)"/><path class="cls-3" d="M473.11,331.15l-.23-1c1.06-.25,2.12-.61,3.14-.95a32.76,32.76,0,0,1,3.54-1.05l.21,1a29.88,29.88,0,0,0-3.43,1A33.59,33.59,0,0,1,473.11,331.15Z" transform="translate(-203.23 -87.04)"/><path class="cls-3" d="M453,341.81l-.28-1c7.19-2.07,18.59-5.76,26.15-8.32l.32.94C471.6,336,460.17,339.73,453,341.81Z" transform="translate(-203.23 -87.04)"/><path class="cls-3" d="M456.66,344.64l-.32-.95,1.72-.57c4.62-1.55,11.59-3.89,15.17-4.61l.2,1c-3.52.71-10.46,3-15.05,4.58Z" transform="translate(-203.23 -87.04)"/><path class="cls-3" d="M592.22,370.28l-.44-.9c3.41-1.65,8.21-3.51,12.86-5.3,3.32-1.28,6.46-2.5,8.83-3.54l.4.92c-2.4,1.05-5.54,2.27-8.88,3.55C600.37,366.8,595.59,368.65,592.22,370.28Z" transform="translate(-203.23 -87.04)"/><path class="cls-3" d="M484.88,300.67l-.09-1c4.42-.38,8.79-1.17,12.65-1.87,2.56-.46,4.78-.87,6.51-1.05A109,109,0,0,0,519.13,294l.24,1a107.91,107.91,0,0,1-15.32,2.77c-1.69.18-3.89.57-6.43,1C493.74,299.49,489.35,300.28,484.88,300.67Z" transform="translate(-203.23 -87.04)"/><path class="cls-3" d="M522.56,294.5l-.12-1,3.42-.4a69.27,69.27,0,0,0,9.84-1.58l.27,1a69.66,69.66,0,0,1-10,1.61Z" transform="translate(-203.23 -87.04)"/><path class="cls-3" d="M539.57,292l-.14-1c5.52-.75,13.93-1.94,19.49-2.84l.16,1C553.51,290.06,545.09,291.25,539.57,292Z" transform="translate(-203.23 -87.04)"/><path class="cls-3" d="M433.09,98.16l-.18-1c9.4-1.81,22.93-3.78,26.85-4.34l.14,1C456,94.39,442.48,96.35,433.09,98.16Z" transform="translate(-203.23 -87.04)"/><path class="cls-3" d="M435.77,101.49l-.21-1c2.78-.58,6.36-1.11,10.14-1.68,6-.88,12.12-1.8,15.47-3l.33.94c-3.44,1.2-9.65,2.13-15.65,3C442.08,100.38,438.52,100.91,435.77,101.49Z" transform="translate(-203.23 -87.04)"/><path class="cls-3" d="M437.72,104.16l-.11-1a60.11,60.11,0,0,0,13.23-2.64l.32.94A60.82,60.82,0,0,1,437.72,104.16Z" transform="translate(-203.23 -87.04)"/><path class="cls-3" d="M455.07,100.83l-.14-1c1.15-.17,2.2-.28,3.22-.38a24,24,0,0,0,5.36-.93l.31,1a24.92,24.92,0,0,1-5.57,1C457.24,100.56,456.2,100.66,455.07,100.83Z" transform="translate(-203.23 -87.04)"/><path class="cls-3" d="M439.61,107.66l-.22-1c5.44-1.18,13.15-2.49,19.34-3.53l5.68-1,.18,1-5.69,1C452.71,105.18,445,106.48,439.61,107.66Z" transform="translate(-203.23 -87.04)"/><path class="cls-3" d="M441.15,112.14l-.3-1c4-1.29,9.22-2,14.28-2.75a109.06,109.06,0,0,0,11.08-1.92l.25,1a109.48,109.48,0,0,1-11.2,2C450.25,110.14,445.06,110.87,441.15,112.14Z" transform="translate(-203.23 -87.04)"/><path class="cls-3" d="M442.81,116.48l-.28-1c1.91-.56,3.8-1,5.63-1.38s3.88-.86,5.86-1.45l.29,1c-2,.59-4,1-5.93,1.47S444.69,115.93,442.81,116.48Z" transform="translate(-203.23 -87.04)"/><path class="cls-3" d="M444.47,122.15l-.28-1a163.35,163.35,0,0,1,19.29-3.79l1.44-.23.16,1-1.45.23A164,164,0,0,0,444.47,122.15Z" transform="translate(-203.23 -87.04)"/><path class="cls-3" d="M445.77,126.16l-.2-1c3.82-.78,8.06-1.47,12.17-2.13,3.88-.62,7.55-1.21,10.83-1.87l.2,1c-3.3.66-7,1.25-10.87,1.88C453.8,124.7,449.57,125.38,445.77,126.16Z" transform="translate(-203.23 -87.04)"/><path class="cls-3" d="M446.1,130.16l-.2-1c2-.42,4.4-.84,7-1.3s5.15-.91,7.38-1.37l.2,1c-2.24.46-4.86.93-7.4,1.38S448.08,129.74,446.1,130.16Z" transform="translate(-203.23 -87.04)"/><path class="cls-3" d="M446.08,134.33l-.16-1a192.56,192.56,0,0,0,20.28-4.16l.26,1A195,195,0,0,1,446.08,134.33Z" transform="translate(-203.23 -87.04)"/><path class="cls-3" d="M446.41,139.16l-.15-1c5.1-.74,10.1-1.88,14.12-2.8l3.85-.86.21,1c-1.17.25-2.46.55-3.84.86C456.56,137.27,451.54,138.41,446.41,139.16Z" transform="translate(-203.23 -87.04)"/><path class="cls-3" d="M442.25,220.33l-.17-1c2.75-.47,5.42-.79,8-1.09,3-.36,5.79-.69,8.65-1.24,4.46-.85,8.63-1.48,12-2,2.67-.41,4.78-.73,6-1l.22,1c-1.26.28-3.39.61-6.08,1-3.34.5-7.5,1.13-11.95,2-2.89.55-5.72.89-8.72,1.24C447.63,219.54,445,219.86,442.25,220.33Z" transform="translate(-203.23 -87.04)"/><path class="cls-3" d="M440.55,224l-.1-1c8.5-.86,17.77-2.26,25.45-3.82l.2,1C458.39,221.73,449.08,223.13,440.55,224Z" transform="translate(-203.23 -87.04)"/><path class="cls-3" d="M469.39,219.83l-.11-1c3.89-.43,8.21-1.07,12.39-1.7,2.79-.41,5.43-.81,7.93-1.14l.13,1c-2.49.32-5.12.72-7.91,1.13C477.63,218.76,473.3,219.41,469.39,219.83Z" transform="translate(-203.23 -87.04)"/><path class="cls-3" d="M436.9,228.16l-.14-1c3.38-.48,7-.9,10.5-1.3,6.13-.71,12.48-1.44,17.47-2.53l.21,1c-5,1.1-11.41,1.83-17.57,2.54C443.88,227.27,440.27,227.68,436.9,228.16Z" transform="translate(-203.23 -87.04)"/><path class="cls-3" d="M433.06,232.49l-.12-1c8.84-1.14,18.44-2.32,26.67-3.33l.12,1C451.5,230.17,441.9,231.35,433.06,232.49Z" transform="translate(-203.23 -87.04)"/><path class="cls-3" d="M462.55,228.66l-.1-1c3.44-.35,6.49-.84,9.73-1.35,2.43-.39,4.95-.79,7.76-1.15l.12,1c-2.79.36-5.3.76-7.73,1.15C469.09,227.82,466,228.31,462.55,228.66Z" transform="translate(-203.23 -87.04)"/><path class="cls-3" d="M467.74,223.83l-.14-1,3-.46c2.72-.42,5.81-.9,7.89-1l.06,1c-2,.14-5.1.62-7.8,1Z" transform="translate(-203.23 -87.04)"/></g><text class="cls-9" transform="matrix(0.75, 0.66, -0.66, 0.75, 9.14, 101.75)">©<tspan class="cls-10" x="6.77" y="0">O</tspan><tspan x="12.97" y="0">pen </tspan><tspan class="cls-11" x="28.09" y="0">D</tspan><tspan x="34.07" y="0">igital </tspan><tspan class="cls-12" x="51.97" y="0">E</tspan><tspan x="56.4" y="0">duc</tspan><tspan class="cls-13" x="68.88" y="0">a</tspan><tspan x="72.66" y="0">tion</tspan></text></svg>